<svg id="图层_1" data-name="图层 1" xmlns="http://www.w3.org/2000/svg" viewBox="0 0 22 18"><defs><style>.cls-1{opacity:0.8;}.cls-2{fill:#5bcbd6;}.cls-3{fill:#f6fad0;}</style></defs><title>logo</title><g id="logo" class="cls-1"><path id="形状_2" data-name="形状 2" class="cls-2" d="M13.38,7l1.84-3.29a3.11,3.11,0,0,1,.22-.4h0a2.39,2.39,0,0,1,2-1,2.45,2.45,0,0,1,2.42,2.49V12H22V4.74a4.92,4.92,0,0,0-.47-2.1A4.58,4.58,0,0,0,17.41,0a4.5,4.5,0,0,0-3.34,1.49,5.39,5.39,0,0,0-.47.6l-.31.56-1.45,2.6,1.25,2.24ZM8.62,11l-1.8,3.22a2.86,2.86,0,0,1-.3.54,2.39,2.39,0,0,1-1.93,1,2.45,2.45,0,0,1-2.41-2.49V6H0v7.28a4.76,4.76,0,0,0,2.17,4,4.49,4.49,0,0,0,4.32.29A4.69,4.69,0,0,0,8.33,16l.42-.75,1.41-2.52L8.91,10.49Z"/><path id="形状_2_拷贝" data-name="形状 2 拷贝" class="cls-3" d="M19.82,13.47a2.45,2.45,0,0,1-2.4,2.27,2.38,2.38,0,0,1-2-1.11,2.54,2.54,0,0,1-.16-.28L13.38,11,12.25,9h0L11,6.75h0L8.7,2.64l-.28-.5a3.74,3.74,0,0,0-.48-.63A4.5,4.5,0,0,0,4.6,0,4.57,4.57,0,0,0,.49,2.63,5,5,0,0,0,0,4.49H2.19a2.46,2.46,0,0,1,2.4-2.24,2.39,2.39,0,0,1,2,1.08,2.27,2.27,0,0,1,.19.34l1.1,2h0l4.83,8.63h0l.64,1.14h0l.22.4a4.67,4.67,0,0,0,2,1.76,4.45,4.45,0,0,0,4.27-.3A4.73,4.73,0,0,0,22,13.47Z"/></g></svg>