<svg id="图层_1" data-name="图层 1" xmlns="http://www.w3.org/2000/svg" xmlns:xlink="http://www.w3.org/1999/xlink" viewBox="0 0 600 600"><defs><style>.cls-1{fill:#289cd9;}.cls-2{fill:url(#未命名的渐变_29);}.cls-3{fill:#18b1c7;}</style><linearGradient id="未命名的渐变_29" x1="12.13" y1="310.37" x2="587.86" y2="310.37" gradientUnits="userSpaceOnUse"><stop offset="0" stop-color="#f1931a"/><stop offset="1" stop-color="#e9562b"/></linearGradient></defs><title>未标题-1</title><path class="cls-1" d="M362.23,259.2l48.2-83.48a64.1,64.1,0,0,1,5.87-10.18l.05-.06a63.22,63.22,0,0,1,114.76,36.59V385.8H588V202.07a120.13,120.13,0,0,0-219.81-67L360,149.25l-38.1,66,32.84,56.88Z"/><path class="cls-2" d="M530.86,423.72a63.21,63.21,0,0,1-115.56,29.6,61.59,61.59,0,0,1-4.07-7.06l-49.07-85-29.42-51,.14-.24L300,253.18l-.13.23L239.54,148.88l-7.26-12.58A120.14,120.14,0,0,0,24.51,149a119.23,119.23,0,0,0-12.38,47.19h57a63.24,63.24,0,0,1,120-20.74l28.72,49.75.1-.06,126.42,219-.1.06,16.62,28.78.07.12,5.86,10.17a120.79,120.79,0,0,0,52.36,44.86A120.11,120.11,0,0,0,587.86,423.72Z"/><path class="cls-3" d="M237.6,361.31l-47.27,81.87A63.22,63.22,0,0,1,68.84,418.67V234.1H12V418.67A120.08,120.08,0,0,0,230.15,488l11-19.05L278.07,405l-32.85-56.89Z"/></svg>